<?xml version="1.0" encoding="utf-8"?>
<!-- Generator: Adobe Illustrator 23.0.0, SVG Export Plug-In . SVG Version: 6.00 Build 0)  -->
<svg version="1.1" id="Слой_1" xmlns="http://www.w3.org/2000/svg" xmlns:xlink="http://www.w3.org/1999/xlink" x="0px" y="0px"
	 viewBox="0 0 212.8 88.2" style="enable-background:new 0 0 212.8 88.2;" xml:space="preserve">
<path fill="#fff" d="M86.2,45.1c0,24.9-19.3,45.1-43.1,45.1S0,70.1,0,45.1S19.3,0,43.1,0S86.2,20.2,86.2,45.1z M42.1,16.8
	c-14.9,0-26.9,12.6-26.9,28.2s12.1,28.2,26.9,28.2s26.9-12.6,26.9-28.2S57,16.8,42.1,16.8z"/>
<polygon fill="#43B64D" class="st1" points="97,3.2 113.9,2.3 114.7,70 143.5,70.9 143.7,88 97.2,87.4 "/>
<polygon fill="#fff" points="154.2,2 215,2.6 181.5,69.4 180.7,71.8 212.8,72.1 212.8,88.2 151.9,88 185.7,20 152.5,20.3 152.8,2.3
	"/>
</svg>
