<svg xmlns="http://www.w3.org/2000/svg" xmlns:xlink="http://www.w3.org/1999/xlink" viewBox="0 0 47.31 92.27">
    <defs><style>.cls-1{opacity:0.7;fill:url(#linear-gradient);}.cls-2{fill:#fff;}</style><linearGradient id="linear-gradient" x1="23.71" y1="80.86" x2="23.48" y2="50.94" gradientUnits="userSpaceOnUse"><stop offset="0" stop-color="#fff"/><stop offset="1"/></linearGradient></defs><title>Ресурс 1</title><g id="Слой_2" data-name="Слой 2"><g id="Layer_2" data-name="Layer 2"><path class="cls-1" d="M11.27,87.18c-2-1.62-2.81-4.36-3.09-6.53-.25-2,0-3.48-1.46-5.17a19.61,19.61,0,0,0-5-3.57C1.06,71.54,0,71,0,70.33c0-1.07,1.68-.94,2.64-1.24a4.26,4.26,0,0,0,3.35-4c.19-1.79-.77-3.48-.43-5.38.38-2.09,3-2.25,5.28-2.2,2,0,5.21.57,6.75-.63s1.19-2.94,1.73-4.55l21.88-.07c-.38,0-1.53,1.86-1.7,2.09A15.52,15.52,0,0,0,37,59.06c-.47,1.66-.45,3.1,1.14,4.25,16.52,10.41,6.73,24.47,1.78,26.58C37,91.75,20,95.26,11.27,87.18Z"/><path d="M11,6.85C9,9,8.26,12.44,8,15.2c-.22,2.52.05,4.41-1.37,6.58-1.27,1.95-3.19,3.26-5,4.66-.62.49-1.67,1.16-1.66,2,0,1.36,1.71,1.15,2.66,1.51,2.37.88,3.21,2.68,3.44,5s-.71,4.44-.33,6.84c.42,2.65,3,2.78,5.32,2.66,2-.11,5.19-.85,6.76.63s1.24,3.71,1.81,5.73l21.88-.45c-.38,0-1.56-2.31-1.74-2.6a21.35,21.35,0,0,1-2.61-5.88c-.51-2.1-.51-3.93,1.05-5.43C54.59,22.86,44.54,5.26,39.55,2.71,36.57.42,19.56-3.61,11,6.85Z"/><polygon class="cls-2" points="19.37 20.74 33.02 4.28 30.22 17.59 34.77 17.59 19.72 38.24 24.97 21.09 19.37 20.74"/></g></g></svg>